<?xml version="1.0" encoding="utf-8"?>
<svg viewBox="26.724 28.874 434 126.723" xmlns="http://www.w3.org/2000/svg">
  <path d="M 99.483 34.246 L 47.528 34.246 C 33.702 34.246 26.724 40.957 26.724 54.25 L 26.724 125.396 C 26.724 127.138 27.66 128.211 29.677 128.211 L 45.382 128.211 C 47.262 128.211 48.471 127.138 48.471 125.396 L 48.471 122.695 C 48.471 116.105 51.249 112.513 58.15 111.821 L 99.483 111.821 C 114.648 111.821 121.497 105.247 121.497 90.881 L 121.497 55.186 C 121.497 40.82 114.648 34.246 99.483 34.246 Z M 99.772 84.839 C 99.772 92.631 98.007 94.236 88.739 94.236 L 66.726 94.236 C 57.465 94.236 51.553 97.326 48.464 103.367 L 48.464 59.485 C 48.464 53.444 49.94 51.83 57.321 51.83 L 88.739 51.83 C 98.007 51.83 99.772 53.444 99.772 61.228 L 99.772 84.839 Z" style="fill-rule: evenodd; paint-order: fill; stroke-width: 3px; stroke-linecap: square; stroke-linejoin: round; fill: rgb(255, 255, 255); stroke: rgb(159, 159, 159);"/>
  <path d="M 171.298 73.577 C 159.352 73.577 154.246 79.619 154.246 89.823 L 154.246 125.662 C 154.246 127.275 153.439 128.211 151.56 128.211 L 137.331 128.211 C 135.451 128.211 134.515 127.275 134.515 125.662 L 134.515 60.155 C 134.515 58.542 135.451 57.598 137.331 57.598 L 149.277 57.598 C 151.027 57.598 151.963 58.542 151.963 60.155 L 151.963 70.724 C 154.246 62.004 160.828 57.568 172.508 57.568 L 177.34 57.568 C 179.082 57.568 180.018 58.511 180.018 60.124 L 180.018 71.028 C 180.018 72.771 179.082 73.577 177.34 73.577 L 171.298 73.577 Z" style="fill-rule: evenodd; paint-order: fill; stroke-width: 3px; stroke-linecap: square; stroke-linejoin: round; fill: rgb(255, 255, 255); stroke: rgb(159, 159, 159);"/>
  <path d="M 263.917 109.013 C 263.917 122.306 258.012 128.211 243.92 128.211 L 209.017 128.211 C 195.054 128.211 189.012 122.306 189.012 109.013 L 189.012 76.811 C 189.012 63.526 195.054 57.613 209.017 57.613 L 243.92 57.613 C 258.012 57.613 263.917 63.526 263.917 76.811 L 263.917 109.013 Z M 244.186 81.902 C 244.186 74.917 242.847 73.577 234.523 73.577 L 218.543 73.577 C 210.09 73.577 208.743 74.917 208.743 81.902 L 208.743 103.915 C 208.743 110.893 210.09 112.239 218.543 112.239 L 234.523 112.239 C 242.847 112.239 244.186 110.893 244.186 103.915 L 244.186 81.902 Z" style="fill-rule: evenodd; paint-order: fill; stroke-width: 3px; stroke-linecap: square; stroke-linejoin: round; fill: rgb(255, 255, 255); stroke: rgb(159, 159, 159);"/>
  <path d="M 283.784 73.577 L 277.065 73.577 C 275.315 73.577 274.379 72.771 274.379 71.028 L 274.379 60.155 C 274.379 58.542 275.315 57.598 277.065 57.598 L 283.777 57.598 L 283.777 48.878 C 283.784 35.585 290.762 28.874 304.588 28.874 L 321.1 28.874 C 322.979 28.874 323.786 29.817 323.786 31.423 L 323.786 42.296 C 323.786 44.046 322.979 44.845 321.1 44.845 L 312.379 44.845 C 304.991 44.845 303.515 46.458 303.515 52.5 L 303.515 57.598 L 321.1 57.598 C 322.979 57.598 323.786 58.542 323.786 60.155 L 323.786 71.028 C 323.786 72.771 322.979 73.577 321.1 73.577 L 303.515 73.577 L 303.515 125.662 C 303.515 127.275 302.579 128.211 300.699 128.211 L 286.47 128.211 C 284.591 128.211 283.784 127.275 283.784 125.662 L 283.784 73.577 Z" style="fill-rule: evenodd; paint-order: fill; stroke-width: 3px; stroke-linecap: square; stroke-linejoin: round; fill: rgb(255, 255, 255); stroke: rgb(159, 159, 159);"/>
  <path d="M 338.555 73.577 L 331.851 73.577 C 330.109 73.577 329.173 72.771 329.173 71.028 L 329.173 60.155 C 329.173 58.542 330.109 57.598 331.851 57.598 L 338.57 57.598 L 338.57 48.878 C 338.555 35.585 345.548 28.874 359.358 28.874 L 375.87 28.874 C 377.75 28.874 378.556 29.817 378.556 31.423 L 378.556 42.296 C 378.556 44.046 377.75 44.845 375.87 44.845 L 367.143 44.845 C 359.762 44.845 358.286 46.458 358.286 52.5 L 358.286 57.598 L 375.87 57.598 C 377.75 57.598 378.556 58.542 378.556 60.155 L 378.556 71.028 C 378.556 72.771 377.75 73.577 375.87 73.577 L 358.286 73.577 L 358.286 125.662 C 358.286 127.275 357.342 128.211 355.463 128.211 L 341.233 128.211 C 339.354 128.211 338.555 127.275 338.555 125.662 L 338.555 73.577 Z" style="fill-rule: evenodd; paint-order: fill; stroke-width: 3px; stroke-linecap: square; stroke-linejoin: round; fill: rgb(255, 255, 255); stroke: rgb(159, 159, 159);"/>
  <path d="M 438.555 155.597 L 409.29 155.597 C 396.141 155.597 390.503 150.499 390.503 137.875 L 390.503 136.536 C 390.464 136.176 390.506 135.811 390.628 135.47 C 390.749 135.128 390.945 134.818 391.203 134.563 C 391.46 134.308 391.771 134.114 392.114 133.996 C 392.457 133.878 392.821 133.838 393.181 133.88 L 406.878 133.88 C 408.757 133.88 409.693 134.824 409.693 136.566 L 409.693 137.236 C 409.693 139.922 411.177 140.995 414.129 140.995 L 431.044 140.995 C 439.095 140.995 441.111 138.986 441.111 132.138 L 441.111 110.961 C 438.022 117.003 432.117 120.092 422.849 120.092 L 409.153 120.092 C 395.19 120.092 389.011 114.187 389.011 100.894 L 389.011 60.155 C 388.993 59.803 389.051 59.451 389.182 59.124 C 389.312 58.797 389.512 58.502 389.767 58.259 C 390.022 58.016 390.326 57.831 390.66 57.717 C 390.993 57.603 391.347 57.562 391.697 57.598 L 406.064 57.598 C 407.806 57.598 408.75 58.542 408.75 60.155 L 408.75 95.834 C 408.75 102.812 410.226 104.159 418.55 104.159 L 428.754 104.159 C 437.611 104.159 441.104 100.529 441.104 93.148 L 441.104 60.155 C 441.104 58.542 442.04 57.598 443.79 57.598 L 458.163 57.598 C 458.507 57.565 458.854 57.608 459.179 57.725 C 459.504 57.842 459.799 58.029 460.042 58.274 C 460.286 58.518 460.473 58.814 460.588 59.139 C 460.704 59.464 460.747 59.811 460.713 60.155 L 460.713 134.253 C 460.705 148.338 453.187 155.597 438.555 155.597 Z" style="fill-rule: evenodd; paint-order: fill; stroke-width: 3px; stroke-linecap: square; stroke-linejoin: round; fill: rgb(255, 255, 255); stroke: rgb(159, 159, 159);"/>
</svg>